0
SECTION
2
HEADER
9
$INSUNITS
70
6
0
ENDSEC
0
SECTION
2
ENTITIES
0
LWPOLYLINE
8
VG$FLOOR$g$0$0$3.2$Ground%20Floor
90
4
70
1
10
0
20
0
10
12
20
0
10
12
20
8
10
0
20
8
0
LWPOLYLINE
8
VG$SPACE$g$g-lobby$entrance$true$true$Arrival%20Lobby
90
4
70
1
10
0
20
0
10
4
20
0
10
4
20
8
10
0
20
8
0
LWPOLYLINE
8
VG$SPACE$g$g-concourse$corridor$true$true$Main%20Concourse
90
4
70
1
10
4
20
0
10
12
20
0
10
12
20
8
10
4
20
8
0
LINE
8
VG$PORTAL$g$lobby-opening$opening$g-lobby$g-concourse$true$false
10
4
20
3.5
11
4
21
4.5
0
POINT
8
VG$POI$g$g-concourse$information-desk$service$true$true$Information%20Desk
10
8
20
4
0
LWPOLYLINE
8
VG$FLOOR$l1$1$3.6$3.2$Level%201
90
4
70
1
10
0
20
0
10
12
20
0
10
12
20
8
10
0
20
8
0
LWPOLYLINE
8
VG$SPACE$l1$l1-gallery$lobby$true$true$Upper%20Gallery
90
4
70
1
10
0
20
0
10
12
20
0
10
12
20
8
10
0
20
8
0
POINT
8
VG$CONNECTOR$lift-east$elevator$true$false$g$g-concourse$East%20Lift
10
10
20
2
0
POINT
8
VG$CONNECTOR$lift-east$elevator$true$false$l1$l1-gallery$East%20Lift
10
10
20
2
0
POINT
8
VG$POI$l1$l1-gallery$sky-gallery$gallery$true$true$Sky%20Gallery
10
8
20
4
0
POINT
8
VG$ANCHOR$g$g-lobby$entry-qr$qr$90$voicegis%3A%2F%2Fatrium-dxf-v0%2Fentry-qr
10
2
20
4
0
ENDSEC
0
EOF
