0
SECTION
2
HEADER
9
$INSUNITS
70
6
0
ENDSEC
0
SECTION
2
ENTITIES
0
LWPOLYLINE
8
A-FLOOR-OUTLINE
90
4
70
1
10
0
20
0
10
12
20
0
10
12
20
8
10
0
20
8
0
LWPOLYLINE
8
A-SPACE-ENTRY
90
4
70
1
10
0
20
0
10
4
20
0
10
4
20
8
10
0
20
8
0
LWPOLYLINE
8
A-SPACE-GALLERY
90
4
70
1
10
4
20
0
10
8
20
0
10
8
20
8
10
4
20
8
0
LWPOLYLINE
8
A-SPACE-ARCHIVE
90
4
70
1
10
8
20
0
10
12
20
0
10
12
20
8
10
8
20
8
0
LINE
8
A-DOORS
10
4
20
3.5
11
4
21
4.5
0
LINE
8
A-DOORS
10
8
20
3.5
11
8
21
4.5
0
POINT
8
A-POIS
10
1.5
20
4
30
0
0
POINT
8
A-POIS
10
6
20
4
30
0
0
TEXT
8
A-ANNOTATION
10
1
20
1
40
0.3
1
Shared POI layer: select points individually
0
ENDSEC
0
EOF
