0
SECTION
2
HEADER
9
$INSUNITS
70
6
0
ENDSEC
0
SECTION
2
BLOCKS
0
BLOCK
8
0
2
DOOR-LEAF
70
0
10
0
20
0
30
0
3
DOOR-LEAF
0
LINE
8
0
10
0
20
-0.5
11
0
21
0.5
0
ENDBLK
8
0
0
BLOCK
8
0
2
MARKER
70
0
10
0
20
0
30
0
3
MARKER
0
POINT
8
0
10
0
20
0
30
0
0
ENDBLK
8
0
0
BLOCK
8
0
2
FURNITURE-CLUSTER
70
0
10
0
20
0
30
0
3
FURNITURE-CLUSTER
0
POINT
8
0
10
0
20
0
30
0
0
POINT
8
0
10
1
20
1
30
0
0
ENDBLK
8
0
0
ENDSEC
0
SECTION
2
ENTITIES
0
LWPOLYLINE
8
A-FLOOR-OUTLINE
90
4
70
1
10
0
20
0
10
8
20
0
10
8
20
8
10
0
20
8
0
LWPOLYLINE
8
A-SPACE-ENTRY
90
4
70
1
10
0
20
0
10
4
20
0
10
4
20
8
10
0
20
8
0
LWPOLYLINE
8
A-SPACE-GALLERY
90
4
70
1
10
4
20
0
10
8
20
0
10
8
20
8
10
4
20
8
0
INSERT
8
A-DOORS
2
DOOR-LEAF
10
4
20
4
30
0
0
INSERT
8
A-DOORS-ROTATED
2
DOOR-LEAF
10
2
20
6
30
0
50
90
0
INSERT
8
A-DOORS-SCALED
2
DOOR-LEAF
10
2
20
2
30
0
41
2
42
2
0
INSERT
8
A-POIS
2
MARKER
10
1.5
20
4
30
0
0
INSERT
8
A-FURNITURE
2
FURNITURE-CLUSTER
10
6
20
2
30
0
0
INSERT
8
A-DOORS-ARRAYED
2
DOOR-LEAF
10
6
20
6
30
0
70
3
71
1
0
INSERT
8
A-DOORS-SQUASHED
2
DOOR-LEAF
10
7
20
6
30
0
41
1
42
3
0
INSERT
8
A-MISSING
2
NO-SUCH-BLOCK
10
7
20
2
30
0
0
ENDSEC
0
EOF
