0
SECTION
2
HEADER
9
$INSUNITS
70
6
0
ENDSEC
0
SECTION
2
ENTITIES
0
LWPOLYLINE
8
A-FLOOR-G
90
4
70
1
10
0
20
0
10
8
20
0
10
8
20
8
10
0
20
8
0
LWPOLYLINE
8
A-SPACE-ENTRY
90
4
70
1
10
0
20
0
10
8
20
0
10
8
20
8
10
0
20
8
0
LWPOLYLINE
8
A-FLOOR-L1
90
4
70
1
10
0
20
0
10
8
20
0
10
8
20
8
10
0
20
8
0
LWPOLYLINE
8
A-SPACE-GALLERY
90
4
70
1
10
0
20
0
10
8
20
0
10
8
20
8
10
0
20
8
0
POINT
8
A-RAMP-STOPS
10
4
20
4
30
0
0
POINT
8
A-RAMP-STOPS
10
4.2
20
4
30
0
0
TEXT
8
A-ANNOTATION
10
1
20
1
40
0.3
1
Shared connector layer: group stops explicitly
0
ENDSEC
0
EOF
